HIERARCHY
ROOT Hips
{
	OFFSET -3.958830 18.904000 13.208200
	CHANNELS 6 Xposition Yposition Zposition Zrotation Yrotation Xrotation 
	JOINT LHipJoint
	{
		OFFSET 0.000000 0.000000 0.000000
		CHANNELS 3 Zrotation Yrotation Xrotation
		JOINT LeftUpLeg
		{
			OFFSET 1.800000 -1.400000 0.085000
			CHANNELS 3 Zrotation Yrotation Xrotation
			JOINT LeftLeg
			{
				OFFSET 2.215000 -6.000000 0.000000
				CHANNELS 3 Zrotation Yrotation Xrotation
				JOINT LeftFoot
				{
					OFFSET 2.500000 -6.900000 0.000000
					CHANNELS 3 Zrotation Yrotation Xrotation
					JOINT LeftToeBase
					{
						OFFSET 0.200000 -0.500000 1.950000
						CHANNELS 3 Zrotation Yrotation Xrotation
						End Site
						{
							OFFSET 0.000000 0.000000 0.000000
						}
					}
				}
			}
		}
	}
	JOINT RHipJoint
	{
		OFFSET 0.000000 0.000000 0.000000
		CHANNELS 3 Zrotation Yrotation Xrotation
		JOINT RightUpLeg
		{
			OFFSET -1.800000 -1.400000 0.085000
			CHANNELS 3 Zrotation Yrotation Xrotation
			JOINT RightLeg
			{
				OFFSET -2.215000 -6.000000 0.000000
				CHANNELS 3 Zrotation Yrotation Xrotation
				JOINT RightFoot
				{
					OFFSET -2.500000 -6.900000 0.000000
					CHANNELS 3 Zrotation Yrotation Xrotation
					JOINT RightToeBase
					{
						OFFSET -0.200000 -0.500000 1.950000
						CHANNELS 3 Zrotation Yrotation Xrotation
						End Site
						{
							OFFSET 0.000000 0.000000 0.000000
						}
					}
				}
			}
		}
	}
	JOINT LowerBack
	{
		OFFSET 0.000000 0.000000 0.000000
		CHANNELS 3 Zrotation Yrotation Xrotation
		JOINT Spine
		{
			OFFSET -0.087000 1.940000 -0.288900
			CHANNELS 3 Zrotation Yrotation Xrotation
			JOINT Spine1
			{
				OFFSET 0.000000 1.950000 0.060000
				CHANNELS 3 Zrotation Yrotation Xrotation
				JOINT Neck
				{
					OFFSET 0.000000 0.000000 0.000000
					CHANNELS 3 Zrotation Yrotation Xrotation
					JOINT Neck1
					{
						OFFSET 0.000000 1.600000 0.340000
						CHANNELS 3 Zrotation Yrotation Xrotation
						JOINT Head
						{
							OFFSET 0.000000 1.667000 -0.240000
							CHANNELS 3 Zrotation Yrotation Xrotation
							End Site
							{
								OFFSET 0.000000 0.000000 0.000000
							}
						}
					}
				}
				JOINT LeftShoulder
				{
					OFFSET 0.000000 0.000000 0.000000
					CHANNELS 3 Zrotation Yrotation Xrotation
					JOINT LeftArm
					{
						OFFSET 2.700000 1.550000 -0.730000
						CHANNELS 3 Zrotation Yrotation Xrotation
						JOINT LeftForeArm
						{
							OFFSET 5.450000 0.000000 0.000000
							CHANNELS 3 Zrotation Yrotation Xrotation
							JOINT LeftHand
							{
								OFFSET 3.450000 0.000000 0.000000
								CHANNELS 3 Zrotation Yrotation Xrotation
								JOINT LeftHandIndex1
								{
									OFFSET 0.750000 0.000000 0.000000
									CHANNELS 3 Zrotation Yrotation Xrotation
									End Site
									{
										OFFSET 0.000000 0.000000 0.000000
									}
								}
							}
						}
					}
				}
				JOINT RightShoulder
				{
					OFFSET 0.000000 0.000000 0.000000
					CHANNELS 3 Zrotation Yrotation Xrotation
					JOINT RightArm
					{
						OFFSET -2.700000 1.550000 -0.730000
						CHANNELS 3 Zrotation Yrotation Xrotation
						JOINT RightForeArm
						{
							OFFSET -5.450000 0.000000 0.000000
							CHANNELS 3 Zrotation Yrotation Xrotation
							JOINT RightHand
							{
								OFFSET -3.450000 0.000000 0.000000
								CHANNELS 3 Zrotation Yrotation Xrotation
								JOINT RightHandIndex1
								{
									OFFSET -0.750000 0.000000 0.000000
									CHANNELS 3 Zrotation Yrotation Xrotation
									End Site
									{
										OFFSET 0.000000 0.000000 0.000000
									}
								}
							}
						}
					}
				}
			}
		}
	}
}
MOTION
Frames: 4
Frame Time: 0.016667
2.447230 16.968420 -2.288390 -9.114324 9.606904 18.618277 -15.170322 12.534225 1.790587 -1.711947 -1.116216 -12.174434 4.076619 3.460113 21.634214 -0.838935 4.460911 3.201194 -0.312630 -0.336390 -0.624880 18.614997 -8.857731 5.036873 -12.889792 4.462624 -46.199868 8.260678 -0.322819 -12.420668 0.190252 -2.509016 3.402506 0.016860 1.197270 0.358910 -4.220409 -1.656443 -7.603733 12.616405 -4.592999 2.613008 -2.093573 -4.211568 13.014698 0.053593 1.696685 -11.164782 1.249608 -2.365135 26.569401 -0.731520 -5.039770 -6.811120 27.087308 -12.458373 -0.969475 43.370806 -22.685002 -4.974008 8.476937 5.396936 -1.654086 -4.677536 2.395896 0.213180 0.656650 -0.368410 0.229240 -27.510151 9.106389 3.921982 -30.852634 12.423537 -3.101435 -12.639677 -4.957712 -0.705384 2.322703 -1.030790 -0.488260 0.653540 0.640010 0.236120 
2.495320 16.950060 -2.295430 -9.517177 10.022425 17.705091 -15.121156 12.563881 1.777516 -1.229258 -1.050267 -11.626920 3.945020 3.572574 22.155403 -0.807444 4.480340 3.179838 -0.256770 -0.263060 -0.530280 18.641647 -8.958216 5.020678 -12.475552 4.511591 -45.782429 8.991433 -0.369265 -11.930652 0.129088 -2.411323 3.437073 0.021840 1.105000 0.339620 -4.343859 -1.538200 -7.638244 14.057329 -5.201678 3.582548 -2.620029 -4.719721 13.224989 0.434871 2.050156 -11.271774 1.692577 -2.017635 28.196188 -1.408520 -3.719940 -9.103570 27.035827 -12.454832 -0.921159 43.242956 -21.048357 -4.490161 8.531299 3.540509 -1.435929 -4.578749 2.354887 0.284640 0.587630 -0.269480 0.231900 -28.279604 8.902598 3.821339 -30.828440 12.728136 -3.052150 -11.831881 -5.373291 -0.632348 2.325688 -0.942717 -0.469880 0.671260 0.577390 0.210550 
2.676810 16.883070 -2.321260 -10.110784 10.924379 14.090881 -15.071405 12.780162 1.839988 -0.649246 -0.421441 -7.667551 3.674204 3.884492 22.066424 -0.738669 4.738484 3.129730 -0.239840 -0.277950 -0.409730 18.616953 -9.091330 5.069776 -13.659989 3.949187 -45.275835 13.252358 -0.897815 -8.191207 0.102376 -2.504181 3.373968 0.019480 1.027350 0.308660 -4.406132 -1.631542 -7.864244 17.052889 -6.848578 9.253851 -3.115742 -5.813529 13.430215 1.296945 2.494957 -12.219857 2.460160 -2.022171 28.650898 -3.825840 -2.138370 -8.838110 26.191057 -12.810526 -0.750911 42.786187 -16.672253 -4.583795 12.968134 0.725816 -1.321319 -4.670974 2.339642 0.329480 0.553280 -0.227680 0.212960 -29.327694 9.447857 5.006100 -29.493007 9.387583 -3.281296 -14.911830 -4.934403 -0.562936 2.477108 -0.946179 -0.503760 0.666460 0.516690 0.148930 
2.847150 16.782800 -2.323500 -11.666412 10.077949 12.794284 -15.032626 12.716151 1.837550 0.132114 -0.436374 -6.471917 1.917107 4.739440 23.548171 -0.725922 5.329234 3.074671 -0.382000 -0.406430 -0.592050 18.675544 -9.063190 5.305669 -13.944020 5.018228 -49.994272 20.742698 -3.248947 2.083354 0.216448 -3.109825 3.225487 0.063880 1.354720 0.270730 -4.520933 -1.463055 -7.925586 21.015333 -7.828775 12.209359 -3.544738 -6.044192 12.888859 1.546514 2.350679 -12.046933 2.851679 -1.867516 24.913571 -4.401650 -2.440050 -3.061830 24.972685 -11.837903 -0.742518 38.326056 -16.275449 -5.848624 25.589763 -0.839732 -2.040258 -5.183031 2.518573 0.144440 0.797690 -0.467410 0.286230 -28.547328 8.244047 5.743740 -24.666237 5.911714 -4.871796 -30.504970 4.548919 -2.324742 2.506331 -1.555289 -0.654220 0.813710 0.595100 0.211870 
